//-------------------------------------------------------------------
<region>
sample=/01/00/sample-001.wav
lokey=88
hikey=88
pitch_keycenter=88
hirand=0.25
seq_length=2 seq_position=1

<region>
sample=/01/00/sample-002.wav
lokey=88
hikey=88
pitch_keycenter=88
lorand=0.25
hirand=0.5
seq_length=2 seq_position=1

<region>
sample=/01/00/sample-003.wav
lokey=88
hikey=88
pitch_keycenter=88
lorand=0.5
hirand=0.75
seq_length=2 seq_position=1

<region>
sample=/01/00/sample-004.wav
lokey=88
hikey=88
pitch_keycenter=88
lorand=0.75
seq_length=2 seq_position=1


//-------------------------------------------------------------------
<region>
sample=/01/00/sample-005.wav
lokey=88
hikey=88
pitch_keycenter=88
hirand=0.25
seq_length=2 seq_position=2

<region>
sample=/01/00/sample-006.wav
lokey=88
hikey=88
pitch_keycenter=88
lorand=0.25
hirand=0.5
seq_length=2 seq_position=2

<region>
sample=/01/00/sample-007.wav
lokey=88
hikey=88
pitch_keycenter=88
lorand=0.5
hirand=0.75
seq_length=2 seq_position=2

<region>
sample=/01/00/sample-008.wav
lokey=88
hikey=88
pitch_keycenter=88
lorand=0.75
seq_length=2 seq_position=2